<?xml version="1.0" encoding="UTF-8"?>
<svg xmlns="http://www.w3.org/2000/svg" xmlns:xlink="http://www.w3.org/1999/xlink" width="34px" height="34px" viewBox="0 0 34 34" version="1.1">
<g id="surface1">
<path style=" stroke:none;fill-rule:nonzero;fill:rgb(100%,100%,100%);fill-opacity:1;" d="M 27.039062 25.820312 C 26.722656 25.5 26.136719 25.5 25.820312 25.820312 C 25.5 26.136719 25.5 26.722656 25.820312 27.039062 L 31.449219 32.671875 C 31.769531 32.992188 32.351562 32.992188 32.671875 32.671875 C 32.992188 32.351562 32.992188 31.769531 32.671875 31.449219 L 27.039062 25.820312 "/>
<path style=" stroke:none;fill-rule:nonzero;fill:rgb(100%,100%,100%);fill-opacity:1;" d="M 30.078125 19.859375 C 27.585938 17.371094 23.28125 17.640625 20.460938 20.460938 C 17.640625 23.28125 17.371094 27.589844 19.859375 30.078125 C 22.351562 32.566406 26.65625 32.296875 29.476562 29.476562 C 32.296875 26.65625 32.566406 22.347656 30.078125 19.859375 Z M 30.078125 19.859375 "/>
<path style=" stroke:none;fill-rule:nonzero;fill:rgb(100%,100%,100%);fill-opacity:1;" d="M 20.347656 19.070312 C 20.027344 18.753906 19.445312 18.753906 19.125 19.070312 C 18.804688 19.390625 18.804688 19.976562 19.125 20.292969 L 21.089844 22.257812 C 21.410156 22.578125 21.992188 22.578125 22.3125 22.257812 C 22.632812 21.941406 22.632812 21.355469 22.3125 21.039062 L 20.347656 19.070312 "/>
<path style=" stroke:none;fill-rule:nonzero;fill:rgb(100%,100%,100%);fill-opacity:1;" d="M 21.523438 11.308594 C 19.035156 8.816406 14.730469 9.085938 11.90625 11.90625 C 9.085938 14.730469 8.816406 19.035156 11.308594 21.523438 C 13.796875 24.015625 18.101562 23.746094 20.921875 20.921875 C 23.746094 18.101562 24.015625 13.796875 21.523438 11.308594 Z M 21.523438 11.308594 "/>
<path style=" stroke:none;fill-rule:nonzero;fill:rgb(100%,100%,100%);fill-opacity:1;" d="M 11.792969 10.570312 C 11.476562 10.253906 10.890625 10.253906 10.570312 10.570312 C 10.253906 10.890625 10.253906 11.476562 10.570312 11.792969 L 12.539062 13.757812 C 12.855469 14.078125 13.441406 14.078125 13.757812 13.757812 C 14.078125 13.441406 14.078125 12.855469 13.757812 12.539062 L 11.792969 10.570312 "/>
<path style=" stroke:none;fill-rule:nonzero;fill:rgb(100%,100%,100%);fill-opacity:1;" d="M 12.972656 2.753906 C 10.480469 0.265625 6.175781 0.53125 3.355469 3.355469 C 0.53125 6.175781 0.265625 10.480469 2.753906 12.972656 C 5.242188 15.460938 9.550781 15.191406 12.371094 12.371094 C 15.191406 9.546875 15.460938 5.242188 12.972656 2.753906 Z M 12.972656 2.753906 "/>
<path style=" stroke:none;fill-rule:nonzero;fill:rgb(100%,100%,100%);fill-opacity:1;" d="M 3.242188 2.019531 C 2.921875 1.699219 2.335938 1.699219 2.019531 2.019531 C 1.699219 2.335938 1.699219 2.921875 2.019531 3.242188 L 3.984375 5.207031 C 4.304688 5.523438 4.886719 5.523438 5.207031 5.207031 C 5.523438 4.886719 5.523438 4.304688 5.207031 3.984375 L 3.242188 2.019531 "/>
</g>
</svg>
